<?xml version="1.0" encoding="UTF-8" standalone="no"?>
<!-- Created with Inkscape (http://www.inkscape.org/) -->

<svg
   width="32"
   height="32"
   viewBox="0 0 8.4666666 8.4666666"
   version="1.1"
   id="svg1"
   inkscape:version="1.4.2 (ebf0e940d0, 2025-05-08)"
   sodipodi:docname="chat.svg"
   xmlns:inkscape="http://www.inkscape.org/namespaces/inkscape"
   xmlns:sodipodi="http://sodipodi.sourceforge.net/DTD/sodipodi-0.dtd"
   xmlns="http://www.w3.org/2000/svg"
   xmlns:svg="http://www.w3.org/2000/svg">
  <sodipodi:namedview
     id="namedview1"
     pagecolor="#ffffff"
     bordercolor="#000000"
     borderopacity="0.25"
     inkscape:showpageshadow="2"
     inkscape:pageopacity="0.0"
     inkscape:pagecheckerboard="0"
     inkscape:deskcolor="#d1d1d1"
     inkscape:document-units="px"
     showgrid="true"
     inkscape:zoom="16.277666"
     inkscape:cx="-1.1979604"
     inkscape:cy="7.3413473"
     inkscape:window-width="2446"
     inkscape:window-height="1354"
     inkscape:window-x="0"
     inkscape:window-y="0"
     inkscape:window-maximized="0"
     inkscape:current-layer="layer1">
    <inkscape:grid
       id="grid1"
       units="px"
       originx="0"
       originy="0"
       spacingx="0.26458333"
       spacingy="0.26458333"
       empcolor="#0099e5"
       empopacity="0.30196078"
       color="#0099e5"
       opacity="0.14901961"
       empspacing="5"
       enabled="true"
       visible="true"
       dotted="false" />
  </sodipodi:namedview>
  <defs
     id="defs1" />
  <g
     inkscape:label="Layer 1"
     inkscape:groupmode="layer"
     id="layer1">
    <path
       style="fill:none;stroke:#000000;stroke-width:0.79375;stroke-linecap:round;stroke-linejoin:round;stroke-dasharray:none;stroke-opacity:1"
       d="M 1.0583333,1.3229166 V 6.0854163 H 3.439583 l 2.1166667,1.5875 v -1.5875 H 7.4083329 V 1.3229166 Z"
       id="path1"
       sodipodi:nodetypes="cccccccc" />
    <path
       style="fill:#000000;stroke-width:0.79375;stroke-linecap:round;stroke-linejoin:round;stroke-dasharray:none"
       id="path2"
       sodipodi:type="arc"
       sodipodi:cx="2.645833"
       sodipodi:cy="3.7041664"
       sodipodi:rx="0.52916664"
       sodipodi:ry="0.52916664"
       sodipodi:start="4.7128653"
       sodipodi:end="4.712389"
       sodipodi:open="true"
       sodipodi:arc-type="arc"
       d="M 2.6460851,3.1749998 A 0.52916664,0.52916664 0 0 1 3.1749996,3.7043555 0.52916664,0.52916664 0 0 1 2.645707,4.233333 0.52916664,0.52916664 0 0 1 2.1166664,3.7041034 0.52916664,0.52916664 0 0 1 2.645833,3.1749998" />
    <path
       style="fill:#000000;stroke-width:0.79375;stroke-linecap:round;stroke-linejoin:round;stroke-dasharray:none"
       id="path2-3"
       sodipodi:type="arc"
       sodipodi:cx="4.2333331"
       sodipodi:cy="3.7041664"
       sodipodi:rx="0.52916664"
       sodipodi:ry="0.52916664"
       sodipodi:start="4.7128653"
       sodipodi:end="4.712389"
       sodipodi:open="true"
       sodipodi:arc-type="arc"
       d="M 4.2335852,3.1749998 A 0.52916664,0.52916664 0 0 1 4.7624997,3.7043555 0.52916664,0.52916664 0 0 1 4.2332071,4.233333 0.52916664,0.52916664 0 0 1 3.7041665,3.7041034 0.52916664,0.52916664 0 0 1 4.2333331,3.1749998" />
    <path
       style="fill:#000000;stroke-width:0.79375;stroke-linecap:round;stroke-linejoin:round;stroke-dasharray:none"
       id="path2-3-1"
       sodipodi:type="arc"
       sodipodi:cx="5.8208332"
       sodipodi:cy="3.7041664"
       sodipodi:rx="0.52916664"
       sodipodi:ry="0.52916664"
       sodipodi:start="4.7128653"
       sodipodi:end="4.712389"
       sodipodi:open="true"
       sodipodi:arc-type="arc"
       d="M 5.8210853,3.1749998 A 0.52916664,0.52916664 0 0 1 6.3499998,3.7043555 0.52916664,0.52916664 0 0 1 5.8207072,4.233333 0.52916664,0.52916664 0 0 1 5.2916666,3.7041034 0.52916664,0.52916664 0 0 1 5.8208332,3.1749998" />
  </g>
</svg>
